#!OML:ASF X:\für Bonn\!DataBase\2005_08_12_Daniel\c3d\Daniel.ASF
:FULLY-SPECIFIED
:DEGREES
328
root 14.325 16.8271 -0.0702705 -744.494 -75.3899 735.653
lowerback 14.6977 -4.94012 -9.9146
upperback 4.86329 -8.38066 -4.4756
thorax -2.28093 -4.30647 2.11712
lowerneck 7.3272 4.16492 3.09439
upperneck 1.21283 5.72477 -0.0112413
head -0.748849 2.83906 -0.669968
rclavicle 4.64162e-014 -5.725e-014
rhumerus -37.506 10.0009 -96.8703
rradius 60.8629
rwrist -6.20838
rhand -23.2794 16.0601
rfingers 7.12502
rthumb 3.17327 -13.896
lclavicle 4.64162e-014 -5.725e-014
lhumerus -44.0553 10.2938 69.467
lradius 92.895
lwrist 191.397
lhand -14.9074 11.3065
lfingers 7.12502
lthumb 11.2541 40.9847
rfemur -22.7806 -14.5391 10.1197
rtibia 57.3269
rfoot -20.2876 4.2329
rtoes -9.15659
lfemur -6.42303 -6.10858 -26.1217
ltibia 47.3553
lfoot -30.6085 -13.4959
ltoes -10.388
329
root 14.4108 16.8251 -0.0643236 -744.72 -75.5665 735.983
lowerback 14.5278 -4.8987 -9.9745
upperback 4.81919 -8.31723 -4.51613
thorax -2.24061 -4.27562 2.08293
lowerneck 7.23526 4.15647 2.94122
upperneck 1.20165 5.70051 0.0282935
head -0.742389 2.8266 -0.629657
rclavicle 1.25632e-013 1.27222e-014
rhumerus -37.3957 10.3331 -96.9013
rradius 61.1206
rwrist -6.18728
rhand -23.3039 16.1506
rfingers 7.12502
rthumb 3.14961 -13.8059
lclavicle 1.25632e-013 1.27222e-014
lhumerus -44.3692 10.2206 69.1758
lradius 91.8935
lwrist 191.238
lhand -14.8543 11.2865
lfingers 7.12502
lthumb 11.3053 40.9618
rfemur -22.2517 -14.9692 10.2147
rtibia 58.0918
rfoot -20.5417 4.14847
rtoes -8.97054
lfemur -6.92069 -6.05949 -26.2108
ltibia 47.5393
lfoot -30.626 -13.3082
ltoes -10.5866
330
root 14.496 16.8218 -0.0574261 -744.924 -75.7456 736.284
lowerback 14.3597 -4.85776 -9.99316
upperback 4.77311 -8.24916 -4.56252
thorax -2.21062 -4.24169 2.02107
lowerneck 7.1574 4.13662 2.83372
upperneck 1.17606 5.66529 0.035032
head -0.740897 2.80918 -0.60743
rclavicle 1.03865e-013 -3.81667e-014
rhumerus -37.3201 10.6456 -96.9412
rradius 61.431
rwrist -6.20664
rhand -23.2967 16.2424
rfingers 7.12502
rthumb 3.15661 -13.714
lclavicle 1.03865e-013 -3.81667e-014
lhumerus -44.7108 10.1431 68.9006
lradius 90.9791
lwrist 191.014
lhand -14.7099 11.3128
lfingers 7.12502
lthumb 11.4445 40.9804
rfemur -21.6431 -15.3764 10.2916
rtibia 58.7922
rfoot -20.81 4.10466
rtoes -8.95363
lfemur -7.40366 -6.00389 -26.2943
ltibia 47.7071
lfoot -30.6424 -13.1085
ltoes -10.8192
331
root 14.5802 16.8193 -0.0517188 -745.206 -75.9131 736.671
lowerback 14.1719 -4.80471 -10.0333
upperback 4.73283 -8.16489 -4.60685
thorax -2.16182 -4.20107 1.96823
lowerneck 7.05183 4.10879 2.76416
upperneck 1.17145 5.62132 0.0323301
head -0.726969 2.78789 -0.592982
rclavicle 3.71727e-014 2.8625e-014
rhumerus -37.2232 10.9479 -96.9799
rradius 61.7178
rwrist -6.20381
rhand -23.3671 16.3803
rfingers 7.12502
rthumb 3.08856 -13.5771
lclavicle 3.71727e-014 2.8625e-014
lhumerus -45.0452 10.0567 68.6758
lradius 90.1208
lwrist 190.733
lhand -14.4961 11.447
lfingers 7.12502
lthumb 11.6507 41.1031
rfemur -20.9763 -15.7204 10.3321
rtibia 59.4241
rfoot -21.0777 4.04658
rtoes -9.00656
lfemur -7.86914 -5.98257 -26.4047
ltibia 47.8428
lfoot -30.6438 -12.8882
ltoes -11.0216
332
root 14.6635 16.8158 -0.0453756 -745.511 -76.0897 737.09
lowerback 13.9668 -4.74705 -10.0577
upperback 4.68582 -8.06991 -4.6475
thorax -2.11345 -4.1547 1.9086
lowerneck 6.9695 4.06849 2.75112
upperneck 1.14542 5.56568 -0.0308694
head -0.72079 2.76168 -0.607221
rclavicle -7.25564e-015 2.38542e-014
rhumerus -37.1196 11.1954 -96.9977
rradius 62.0124
rwrist -6.16994
rhand -23.3426 16.479
rfingers 7.12502
rthumb 3.11225 -13.478
lclavicle -7.25564e-015 2.38542e-014
lhumerus -45.3686 10.0346 68.4953
lradius 89.3132
lwrist 190.369
lhand -14.2622 11.5284
lfingers 7.12502
lthumb 11.8763 41.1715
rfemur -20.2619 -15.9948 10.3463
rtibia 59.9877
rfoot -21.3538 3.97557
rtoes -9.03936
lfemur -8.3277 -5.98102 -26.5295
ltibia 47.9578
lfoot -30.6419 -12.6267
ltoes -11.2656
333
root 14.7468 16.8118 -0.0391854 -745.811 -76.2483 737.495
lowerback 13.7708 -4.69225 -10.0714
upperback 4.64459 -7.97748 -4.68117
thorax -2.06378 -4.10983 1.85184
lowerneck 6.86603 4.0306 2.7103
upperneck 1.13428 5.51064 -0.0664117
head -0.707818 2.73541 -0.607583
rclavicle 5.22804e-014 -9.54166e-015
rhumerus -37.0097 11.4127 -97.0189
rradius 62.2892
rwrist -6.11528
rhand -23.3635 16.5632
rfingers 7.12502
rthumb 3.09201 -13.3941
lclavicle 5.22804e-014 -9.54166e-015
lhumerus -45.7067 10.0885 68.3502
lradius 88.5596
lwrist 189.946
lhand -14.0507 11.6589
lfingers 7.12502
lthumb 12.0802 41.2902
rfemur -19.4735 -16.2302 10.3347
rtibia 60.4836
rfoot -21.6358 3.89767
rtoes -9.12255
lfemur -8.76646 -6.01954 -26.6574
ltibia 48.0476
lfoot -30.6056 -12.3567
ltoes -11.4171
334
root 14.8294 16.8072 -0.0336698 -746.133 -76.4171 737.931
lowerback 13.5735 -4.63366 -10.0826
upperback 4.58388 -7.87994 -4.70548
thorax -2.03332 -4.06054 1.80441
lowerneck 6.79587 3.99105 2.68548
upperneck 1.11638 5.45527 -0.119031
head -0.70175 2.70904 -0.61688
rclavicle -1.29111e-013 -4.45278e-014
rhumerus -36.9675 11.6088 -97.0404
rradius 62.5719
rwrist -6.04026
rhand -23.3338 16.6323
rfingers 7.12502
rthumb 3.12073 -13.3246
lclavicle -1.29111e-013 -4.45278e-014
lhumerus -46.0778 10.2381 68.2469
lradius 87.8518
lwrist 189.519
lhand -13.8823 11.751
lfingers 7.12502
lthumb 12.2426 41.3727
rfemur -18.6442 -16.422 10.3024
rtibia 60.9115
rfoot -21.9084 3.81862
rtoes -9.24115
lfemur -9.20146 -6.07105 -26.7853
ltibia 48.1249
lfoot -30.5652 -12.0832
ltoes -11.5202
335
root 14.9111 16.8025 -0.028876 -746.502 -76.5748 738.415
lowerback 13.3588 -4.56475 -10.0933
upperback 4.53617 -7.76531 -4.7279
thorax -1.98088 -4.00442 1.75429
lowerneck 6.67633 3.94082 2.65829
upperneck 1.11137 5.38439 -0.175465
head -0.683538 2.67529 -0.625088
rclavicle -6.7388e-014 -4.29375e-014
rhumerus -36.8898 11.7283 -97.0397
rradius 62.8225
rwrist -5.9274
rhand -23.2555 16.6419
rfingers 7.12502
rthumb 3.19637 -13.3139
lclavicle -6.7388e-014 -4.29375e-014
lhumerus -46.4139 10.4656 68.1873
lradius 87.1953
lwrist 189.076
lhand -13.8002 11.7473
lfingers 7.12502
lthumb 12.3218 41.3642
rfemur -17.7638 -16.546 10.24
rtibia 61.2683
rfoot -22.1532 3.77278
rtoes -9.21469
lfemur -9.63117 -6.12987 -26.9303
ltibia 48.1877
lfoot -30.5286 -11.7722
ltoes -11.6988
336
root 14.9929 16.797 -0.0239749 -746.887 -76.7386 738.919
lowerback 13.1393 -4.4897 -10.0937
upperback 4.48609 -7.64018 -4.74376
thorax -1.92953 -3.94283 1.70453
lowerneck 6.58796 3.87768 2.66824
upperneck 1.08843 5.29971 -0.268962
head -0.674626 2.63504 -0.65173
rclavicle -1.32391e-013 -1.59028e-014
rhumerus -36.756 11.8222 -97.0349
rradius 62.9774
rwrist -5.81016
rhand -23.1605 16.5863
rfingers 7.12502
rthumb 3.28814 -13.3681
lclavicle -1.32391e-013 -1.59028e-014
lhumerus -46.7233 10.8252 68.1613
lradius 86.5402
lwrist 188.632
lhand -13.8167 11.6502
lfingers 7.12502
lthumb 12.3058 41.268
rfemur -16.8571 -16.631 10.1645
rtibia 61.5628
rfoot -22.3768 3.71501
rtoes -9.1847
lfemur -10.0608 -6.20054 -27.0708
ltibia 48.2379
lfoot -30.4501 -11.4594
ltoes -11.7543
337
root 15.0745 16.7917 -0.0195846 -747.323 -76.89 739.468
lowerback 12.9285 -4.41651 -10.0922
upperback 4.43584 -7.51867 -4.76238
thorax -1.88311 -3.88281 1.65276
lowerneck 6.49112 3.82682 2.61376
upperneck 1.06627 5.22713 -0.301216
head -0.666977 2.59975 -0.649002
rclavicle 5.63555e-014 2.8625e-014
rhumerus -36.599 11.8767 -97.043
rradius 63.0391
rwrist -5.64624
rhand -23.0381 16.5543
rfingers 7.12502
rthumb 3.40627 -13.3982
lclavicle 5.63555e-014 2.8625e-014
lhumerus -47.0503 11.2418 68.1489
lradius 85.9436
lwrist 188.255
lhand -13.82 11.4555
lfingers 7.12502
lthumb 12.3026 41.0736
rfemur -15.9023 -16.6936 10.0624
rtibia 61.7931
rfoot -22.5975 3.66057
rtoes -9.22368
lfemur -10.4749 -6.29419 -27.2291
ltibia 48.2685
lfoot -30.3664 -11.1232
ltoes -11.8886
338
root 15.1551 16.7867 -0.0159767 -747.735 -77.0442 739.987
lowerback 12.7183 -4.3358 -10.0654
upperback 4.38668 -7.38403 -4.78058
thorax -1.8401 -3.816 1.58715
lowerneck 6.3945 3.76609 2.60925
upperneck 1.05262 5.14445 -0.374248
head -0.654687 2.56013 -0.666742
rclavicle 1.82882e-014 3.97569e-014
rhumerus -36.4159 11.9099 -97.0509
rradius 63.0317
rwrist -5.43116
rhand -22.9482 16.4698
rfingers 7.12502
rthumb 3.49312 -13.4813
lclavicle 1.82882e-014 3.97569e-014
lhumerus -47.3454 11.7142 68.1631
lradius 85.3712
lwrist 187.904
lhand -13.9206 11.1614
lfingers 7.12502
lthumb 12.2057 40.7852
rfemur -14.9211 -16.7074 9.96549
rtibia 61.9742
rfoot -22.7758 3.56592
rtoes -9.17644
lfemur -10.8658 -6.38101 -27.3716
ltibia 48.2772
lfoot -30.2714 -10.7803
ltoes -12.052
339
root 15.235 16.7856 -0.0126043 -748.218 -77.1989 740.586
lowerback 12.4946 -4.24674 -10.0494
upperback 4.34197 -7.23677 -4.78669
thorax -1.78272 -3.74377 1.53725
lowerneck 6.26383 3.7119 2.53356
upperneck 1.04746 5.06529 -0.398776
head -0.636813 2.52155 -0.656935
rclavicle 2.98177e-014 3.02153e-014
rhumerus -36.1922 11.9213 -97.035
rradius 62.9434
rwrist -5.16672
rhand -22.8386 16.4119
rfingers 7.12502
rthumb 3.59898 -13.5375
lclavicle 2.98177e-014 3.02153e-014
lhumerus -47.6161 12.2645 68.2161
lradius 84.834
lwrist 187.543
lhand -14.0649 10.8034
lfingers 7.12502
lthumb 12.0665 40.4355
rfemur -13.9294 -16.6787 9.85375
rtibia 62.0978
rfoot -22.9611 3.43366
rtoes -9.1644
lfemur -11.2495 -6.50014 -27.5286
ltibia 48.262
lfoot -30.1426 -10.4151
ltoes -12.1863
340
root 15.3145 16.7844 -0.00972725 -748.722 -77.3521 741.197
lowerback 12.2865 -4.15957 -10.0335
upperback 4.29279 -7.09386 -4.78361
thorax -1.73661 -3.6729 1.49974
lowerneck 6.15677 3.66223 2.42584
upperneck 1.02021 4.99099 -0.42589
head -0.630379 2.4852 -0.643803
rclavicle -7.41467e-014 3.65764e-014
rhumerus -35.9547 11.9772 -97.0255
rradius 62.7767
rwrist -4.90393
rhand -22.8048 16.3716
rfingers 7.12502
rthumb 3.63158 -13.5772
lclavicle -7.41467e-014 3.65764e-014
lhumerus -47.8739 12.8822 68.2704
lradius 84.3202
lwrist 187.228
lhand -14.2825 10.4495
lfingers 7.12502
lthumb 11.8567 40.0938
rfemur -12.9143 -16.6184 9.74319
rtibia 62.1606
rfoot -23.0893 3.26598
rtoes -9.11535
lfemur -11.6233 -6.58731 -27.6765
ltibia 48.2331
lfoot -29.9953 -10.0636
ltoes -12.3095
